<?xml version="1.0" encoding="UTF-8"?>
<!DOCTYPE svg PUBLIC "-//W3C//DTD SVG 1.1//EN" "http://www.w3.org/Graphics/SVG/1.1/DTD/svg11.dtd">
<!-- Creator: CorelDRAW (Evaluation Version) -->
<svg xmlns="http://www.w3.org/2000/svg" xml:space="preserve" width="3.51448in" height="0.986114in" version="1.1" style="shape-rendering:geometricPrecision; text-rendering:geometricPrecision; image-rendering:optimizeQuality; fill-rule:evenodd; clip-rule:evenodd"
viewBox="0 0 2831.03 794.35"
 xmlns:xlink="http://www.w3.org/1999/xlink"
 xmlns:xodm="http://www.corel.com/coreldraw/odm/2003">
 <defs>
  <style type="text/css">
   <![CDATA[
    .fil2 {fill:#A00000}
    .fil0 {fill:#000066;fill-rule:nonzero}
    .fil1 {fill:#A00000;fill-rule:nonzero}
   ]]>
  </style>
 </defs>
 <g id="Layer_x0020_1">
  <metadata id="CorelCorpID_0Corel-Layer"/>
  <g id="_2419978086064">
   <g>
    <path class="fil0" d="M220.79 41.55c52.49,-26.26 110.9,-40.49 169.58,-41.48 62.49,-1.23 125.26,12.49 181.42,39.99 41.73,20.33 79.81,48.09 111.98,81.55 47.29,48.97 81.72,110.29 98.65,176.23 16.24,63.26 16.75,130.52 1.17,193.97 -13.81,56.95 -40.74,110.61 -77.71,156.05 -34,41.73 -76.48,76.53 -124.21,101.41 -55.09,28.97 -117.14,44.54 -179.38,45.03 -59.65,0.8 -119.5,-12.02 -173.43,-37.6 -70.99,-33.23 -131.64,-88.1 -171.83,-155.4 -30.2,-50.09 -48.98,-107.01 -54.56,-165.24 -0.95,-9.02 -1.08,-18.12 -2.46,-27.09l0 -33.08 0.7 2.55c1.76,-20.88 3.62,-41.81 8.21,-62.31 7.65,-37.29 20.88,-73.45 38.91,-106.98 38.59,-71.86 99.87,-131.36 172.97,-167.6zm28.23 25.07l0 0c-49.97,22.53 -94.67,56.59 -129.75,98.7 -43.35,51.55 -71.69,115.55 -80.61,182.32 -6.47,46.32 -3.53,93.8 7.64,139.18 45.41,0.96 90.86,-0.27 136.27,0.6 8.18,18.51 18.05,36.43 30.71,52.27 8.46,11.92 19.42,21.72 29.67,32.03 44.75,39.87 105.32,61.59 165.25,58.48 59.31,-2.19 117.22,-28.82 157.91,-71.95 10.72,-10.31 19.41,-22.44 27.9,-34.57 -15.86,-0.57 -31.76,-0.12 -47.64,-0.25 -24.51,0.16 -49.07,-0.35 -73.57,0.24 -8.5,3.77 -16.48,8.83 -25.46,11.56 -36.45,13.06 -78.03,10.99 -112.96,-5.72 -20.37,-9.86 -39,-24.11 -52.46,-42.42 126.96,0.15 253.92,0 380.88,0.08 -4.89,13.48 -10.03,26.94 -17.01,39.51 -36.31,70.79 -104.62,124.14 -182.05,142.38 -63.74,15.57 -132.96,7.93 -191.54,-21.69 -35.67,-17.85 -67.4,-43.44 -92.39,-74.51 -10.72,-13.45 -20.41,-27.76 -28.49,-42.96 -30.29,-0.13 -60.6,0.08 -90.89,-0.1 32.98,85.01 99.87,156.04 182.14,195.09 63.66,30.4 136.36,41.16 206.16,31.21 62.1,-8.53 121.6,-34.04 171.08,-72.46 10.63,-8.77 21.06,-17.79 31.13,-27.2 30.47,-30.14 56.25,-65.24 74.44,-104.13 27.88,-58.23 39.24,-124.06 33.31,-188.29 -1.98,-19.09 -4.44,-38.34 -10.12,-56.71 -7.67,-1.41 -15.82,-0.19 -23.67,-0.63 -37.33,-0.72 -74.66,0.26 -111.99,0.06 -23.55,-55.39 -68.97,-101.38 -124.66,-124.51 -62.16,-26.65 -136.04,-24.05 -196.13,6.99 -48.66,24.81 -88.25,67.02 -109.41,117.43 -16.66,0.04 -33.32,0.18 -49.97,-0.06 18.86,-51.52 41.73,-88.16 85.11,-123.7 21.78,-18.48 46.64,-33.26 72.98,-44.3 74.11,-30.89 161.59,-27.71 233.13,8.8 34.06,17.2 64.66,41.4 88.92,70.86 12.02,14.04 21.74,29.89 31.04,45.8 30.35,0.27 60.72,0 91.09,0.14 -37.83,-96.28 -118.63,-174.8 -216.45,-208.79 -86.85,-30.95 -185.62,-27.03 -269.55,11.24z"/>
    <path class="fil0" d="M282.04 306.73c29.78,-38.16 79.35,-60 127.64,-55.55 40.36,2.94 78.87,23.7 103.81,55.54 -77.14,-0.03 -154.29,-0.09 -231.45,0.02z"/>
    <path class="fil0" d="M411.48 570.78c4.41,-2.24 8.44,-5.21 11.72,-8.95 -0.21,9.22 0.05,18.45 -0.18,27.68 1.05,0.9 2.12,1.82 3.18,2.73 -4.01,0.03 -8,-0.06 -11.99,-0.42 1.27,-0.75 2.57,-1.5 3.86,-2.22 -0.08,-6.47 0.01,-12.94 0,-19.4 -2.21,0.17 -4.4,0.36 -6.59,0.57z"/>
    <path class="fil0" d="M304.54 566.52c4.37,-3.87 10.69,-2.76 16,-2.31 0.03,1.79 0.06,3.57 0.1,5.38 -3.24,-1.23 -6.74,-3.23 -10.27,-1.88 -2.66,0.98 -2.61,4.23 -0.54,5.79 3.72,2.51 8.33,3.51 11.77,6.49 2.67,3.27 1.62,8.63 -2.09,10.63 -4.67,3.08 -10.78,3.08 -15.85,1.05 -0.76,-1.73 -1.26,-3.57 -1.85,-5.34 4.82,2.3 11.18,4.74 15.79,0.6 0.36,-5.84 -6.56,-6.66 -10.34,-9.14 -4.32,-1.73 -6.36,-7.88 -2.73,-11.26z"/>
    <path class="fil0" d="M323.62 567.48c1.19,-2 3.3,-2.73 5.44,-3.17 0.37,1.25 1.14,3.74 1.53,4.99l-2.7 0.16c0.75,0.88 1.48,1.77 2.24,2.67 0.39,6.41 -2.28,14.04 1.41,19.65 0.69,-0.27 2.09,-0.82 2.77,-1.1 0.96,-5.94 0.47,-12.02 -0.45,-17.94 1.11,-0.13 3.35,-0.39 4.46,-0.52 0.41,0.31 1.19,0.93 1.58,1.25 3.9,-1.76 7.94,-1.19 11.83,0.27 1.82,5.36 1.58,11.03 1.53,16.61 0.6,0.38 1.77,1.14 2.36,1.52 -2.82,0.23 -5.66,0.45 -8.48,0.65 1.29,-5.1 2.25,-10.72 0.23,-15.76 -1.83,-1.53 -4.33,-1.38 -6.44,-0.57 -2.76,4.07 -0.95,9.37 -1.04,13.96 0.54,0.48 1.64,1.47 2.18,1.95 -6.61,0.11 -13.21,0.33 -19.81,0.21 0.69,-0.59 2.09,-1.76 2.78,-2.34 0,-5.87 0.36,-11.78 -0.75,-17.56l2.81 -0.04c-1.14,-1.64 -2.3,-3.27 -3.45,-4.88z"/>
    <path class="fil0" d="M427.57 578.95c-3.78,-6 0.69,-14.44 7.72,-14.95 8.46,-2.54 16.08,6.72 13.57,14.72 -2.3,8.74 -11.27,12.89 -19.33,14.82 0.18,-0.72 0.51,-2.18 0.68,-2.9 4.71,-1.89 9.89,-4.02 12.25,-8.9 3.02,-4.62 2.1,-13.09 -4.1,-14.29 -5.31,-1.83 -9.07,5.74 -5.79,9.59 1.98,3.66 6.68,1.83 9.86,1.98 -1.13,1.05 -3.38,3.15 -4.5,4.2 -3.74,-0.41 -8.29,-0.53 -10.34,-4.28z"/>
    <path class="fil0" d="M452.18 564.27c6.29,-0.03 12.58,-0.1 18.88,0 -3.65,9.46 -8.67,18.43 -10.97,28.36 -2.22,-0.19 -4.41,-0.39 -6.62,-0.57 3.66,-7.93 7.58,-15.75 10.6,-23.96 -4.76,-0.74 -9.58,-0.31 -13.98,1.77 0.53,-1.4 1.56,-4.21 2.09,-5.6z"/>
    <path class="fil0" d="M474.99 564.19c5.3,0.05 10.6,0.08 15.9,0.08 0.1,1.71 0.21,3.44 0.33,5.16 -3.84,-0.86 -7.77,-1.03 -11.68,-0.96 -0.16,1.74 -0.31,3.5 -0.45,5.27 3.75,0.49 8,0.1 11.2,2.52 4.37,3.23 4.41,10.63 0.03,13.87 -4.25,3.02 -9.67,2.99 -14.65,2.72 -1.05,-1.65 -2.1,-3.27 -3.15,-4.89 4.97,1.17 10.25,1.79 14.89,-0.84 0.04,-2.51 0.02,-5.01 -0.1,-7.49 -4.22,-1.98 -8.81,-1.79 -13.2,-0.49 0.23,-4.99 0.51,-9.97 0.89,-14.94z"/>
    <path class="fil0" d="M361.32 573.98c3.84,-2.24 8.38,-1.83 12.63,-1.48 -0.03,1.13 -0.08,3.39 -0.1,4.52 -2.97,-0.55 -6.1,-1.99 -9.08,-0.7 -2.33,0.63 -2.6,3.41 -3.69,5.19 0.62,1.81 1.21,3.66 1.81,5.49 4.31,2.88 9.46,1.85 14.28,1.34 -5.13,8.27 -20.16,4.58 -20.99,-5.01 0.15,-3.63 1.58,-7.76 5.15,-9.34z"/>
    <path class="fil0" d="M380.73 573.85c6.49,-4.47 17.25,-0.03 16.86,8.44 -5.6,-0.09 -11.21,-0.24 -16.8,0.03 1.14,2.19 1.85,5.07 4.43,6.07 3.84,1.66 8.09,0.15 12.07,-0.14 -4.8,8.03 -16.21,4.56 -21.19,-1.55 -0.12,-4.61 -0.08,-10.4 4.64,-12.85zm0.43 5.19l0 0c3.39,0.15 6.8,0.22 10.21,0.28 -0.1,-0.72 -0.31,-2.16 -0.42,-2.88 -3.68,-0.93 -7.52,-0.86 -9.79,2.6z"/>
   </g>
   <g>
    <path class="fil1" d="M112.32 331.66c15.31,-0.62 31.75,-0.93 45.36,7.21 10.01,6.05 16.45,17.29 17.01,28.95 -0.35,0.37 -1.05,1.11 -1.41,1.49 -11.81,0.29 -23.55,2.06 -35.4,1.92 -1.34,-4.88 -2.72,-10.29 -7.34,-13.15 -7.15,-4.61 -17.91,-4.65 -24.19,1.4 -4.51,5.07 0.48,12.46 6.3,13.44 16.53,4.41 34.02,6.92 49.01,15.65 13.75,7.66 20.52,25.3 16.3,40.31 -1.44,7.95 -6.26,14.64 -11.26,20.78 -7.96,6.06 -17.13,10.93 -27.16,12.31 -8.48,0.87 -17,2.19 -25.52,0.91 -12.73,-0.54 -26.59,-2.7 -36.22,-11.77 -8.65,-8.24 -13.96,-20.01 -14.38,-31.96 2.88,-0.3 5.75,-0.66 8.6,-1.11 9.62,-0.57 19.24,-1.08 28.88,-1.02 0.43,5.97 2.54,12.19 7.37,16.06 8.54,6.95 22.56,7.19 30.28,-1.2 0.64,-1.56 1.34,-3.11 2.07,-4.62 1.04,-7.4 -4.83,-12.93 -11.32,-15.03 -17.65,-5.58 -37.59,-7.4 -51.77,-20.53 -13.88,-12.58 -11.92,-37.05 2.15,-48.7 8.96,-7.72 20.99,-11.02 32.63,-11.33z"/>
    <path class="fil1" d="M488.93 341.19c10.01,-7.4 22.73,-9.68 34.93,-9.69 9.5,-0.29 19.06,0 28.37,2.12 9.26,2.78 18.57,7.74 23.55,16.38 3.48,5.88 5.32,12.58 6.26,19.3 -11.42,0.19 -22.74,1.93 -34.17,1.89 -3.18,0.53 -4.37,-3.11 -6.86,-4.28 0.72,-0.09 2.18,-0.27 2.91,-0.36 -2.46,-4.6 -5.7,-9.37 -11.09,-10.61 -5.16,-2.18 -10.66,-0.75 -15.91,0.14 -3.81,3.15 -7.23,7.82 -4.26,12.77 1.27,0.99 2.57,1.99 3.84,3 15.64,5.07 32.38,6.9 47.3,14.2 6.76,3.29 13.28,7.8 16.99,14.53 7.23,11.48 6.82,26.94 0.16,38.59 -5.75,11.99 -18.33,19.11 -30.85,22.07 -11.11,1.91 -22.46,2.87 -33.67,1.32 -13,-0.66 -26.8,-4.74 -35.38,-15.1 -6.38,-8.05 -9.97,-18.12 -10.9,-28.31 11.41,-1.32 22.88,-2.09 34.37,-2.12 2.73,-0.09 5.85,0.77 6.82,3.63 -4.34,3.12 0.39,7.46 1.89,10.99 5.85,4.88 13.54,7.79 21.18,6.01 6.71,-0.57 14.11,-6.22 12.91,-13.6 0.18,-5.69 -5.29,-8.81 -9.32,-11.68 -14.8,-4.16 -30.38,-6.39 -44.09,-13.78 -8.57,-4.76 -16.3,-12.49 -18.21,-22.42 -2.87,-12.88 2.15,-27.49 13.21,-34.98z"/>
    <path class="fil1" d="M234.3 333.32c14.54,-0.08 29.09,-0.36 43.62,0.16 14.93,41.47 30.66,82.66 46.29,123.88 0.75,-0.34 2.22,-1.01 2.97,-1.34 7.06,-19.81 14.64,-39.46 22.2,-59.08 1.02,-2.49 2.01,-5.01 2.88,-7.56 6.62,-18.83 13.88,-37.42 20.91,-56.1 14.38,-0.12 28.78,-0.15 43.16,0.03 14.89,38.5 28.9,77.33 43.73,115.87 1.52,3.84 2.75,7.78 3.9,11.75 -13.66,0.41 -27.34,0.29 -41,0.09 -2.19,-6.99 -4.26,-14.02 -6.47,-21 -14.87,0.01 -29.77,0.1 -44.64,-0.02 -2.09,7.04 -4.34,14.03 -6.5,21.05 -27.06,0.06 -54.16,0.49 -81.21,-0.2 -3.2,-6.56 -3.11,-14.8 -7.45,-20.66 -14.31,-0.3 -28.64,-0.19 -42.94,-0.06l-0.98 0.76c-2.69,6.43 -4.13,13.35 -5.93,20.07 -13.49,0.24 -26.99,0.35 -40.47,-0.02 7.31,-20.77 15.46,-41.25 22.94,-61.98 8.69,-21.75 16.32,-43.9 24.98,-65.67zm20.76 34.81l0 0c-4.8,14.41 -9.16,28.98 -13.39,43.57 8.99,0.24 18,0.24 26.99,0.06 -1.59,-7.57 -4.2,-14.85 -6.36,-22.26 -2.36,-7.15 -3.87,-14.59 -7.23,-21.38zm125.16 43.55l0 0c9.11,1.93 18.49,0.45 27.72,0.9 -3.77,-15.07 -8.84,-29.77 -13.27,-44.64 -6.27,14.05 -8.99,29.38 -14.46,43.74z"/>
    <path class="fil1" d="M640.97 333.93c2.3,-0.93 4.88,-0.62 7.31,-0.75 12.01,0.06 24.02,-0.06 36.03,0.1 16.18,42.51 32.12,85.09 47.96,127.74 -13.74,0.2 -27.45,0.21 -41.17,0.03 -2.32,-6.94 -4.44,-13.93 -6.39,-20.97 -14.89,-0.06 -29.77,0.06 -44.64,-0.09 -2.81,6.78 -3.98,14.16 -6.92,20.88 -13.31,0.63 -26.66,0.25 -39.99,0.1 15.81,-42.4 31.7,-84.78 47.82,-127.05zm20.97 33.95l0 0c-4.47,14.89 -10,29.54 -13.21,44.76 8.84,-0.09 17.7,-0.19 26.55,0.1 -0.6,-6.45 -2.94,-12.53 -4.64,-18.73 -2.85,-8.72 -4.85,-17.77 -8.71,-26.13z"/>
   </g>
   <path class="fil1" d="M875.58 299.55l109.62 -6.87c2.35,17.75 7.22,31.32 14.53,40.54 11.92,15.05 28.89,22.62 50.98,22.62 16.44,0 29.15,-3.83 38.02,-11.57 8.96,-7.74 13.4,-16.7 13.4,-26.88 0,-9.66 -4.17,-18.36 -12.61,-26.01 -8.44,-7.66 -28.1,-14.79 -58.99,-21.66 -50.63,-11.31 -86.66,-26.45 -108.23,-45.33 -21.75,-18.79 -32.63,-42.8 -32.63,-72.04 0,-19.14 5.57,-37.24 16.7,-54.29 11.14,-17.14 27.84,-30.54 50.2,-40.28 22.36,-9.75 52.98,-14.62 91.88,-14.62 47.76,0 84.13,8.87 109.19,26.71 25.06,17.75 39.93,46.02 44.72,84.83l-108.58 6.44c-2.87,-16.97 -8.96,-29.32 -18.18,-36.98 -9.31,-7.74 -22.1,-11.57 -38.37,-11.57 -13.4,0 -23.58,2.87 -30.36,8.52 -6.79,5.66 -10.18,12.62 -10.18,20.79 0,5.92 2.78,11.22 8.26,16.01 5.31,4.96 18.18,9.48 38.54,13.74 50.46,10.87 86.57,21.92 108.32,33.06 21.84,11.13 37.76,24.88 47.68,41.41 9.92,16.44 14.88,34.89 14.88,55.33 0,23.92 -6.61,46.02 -19.83,66.29 -13.31,20.19 -31.76,35.58 -55.59,46.02 -23.75,10.44 -53.68,15.66 -89.87,15.66 -63.51,0 -107.54,-12.27 -131.98,-36.72 -24.45,-24.45 -38.28,-55.51 -41.5,-93.18zm626.76 62.03l-130.85 0 -18.79 61.6 -117.89 0 140.68 -373.76 126.41 0 140.07 373.76 -120.93 0 -18.7 -61.6zm-24.45 -80.91l-40.8 -134.33 -40.98 134.33 81.78 0zm430.48 80.91l-130.85 0 -18.79 61.6 -117.89 0 140.68 -373.76 126.41 0 140.07 373.76 -120.93 0 -18.7 -61.6zm-24.45 -80.91l-40.8 -134.33 -40.98 134.33 81.78 0zm180.7 18.88l109.62 -6.87c2.35,17.75 7.22,31.32 14.53,40.54 11.92,15.05 28.89,22.62 50.98,22.62 16.44,0 29.15,-3.83 38.02,-11.57 8.96,-7.74 13.4,-16.7 13.4,-26.88 0,-9.66 -4.17,-18.36 -12.61,-26.01 -8.44,-7.66 -28.1,-14.79 -58.99,-21.66 -50.63,-11.31 -86.66,-26.45 -108.23,-45.33 -21.75,-18.79 -32.63,-42.8 -32.63,-72.04 0,-19.14 5.57,-37.24 16.7,-54.29 11.14,-17.14 27.84,-30.54 50.2,-40.28 22.36,-9.75 52.98,-14.62 91.88,-14.62 47.76,0 84.13,8.87 109.19,26.71 25.06,17.75 39.93,46.02 44.72,84.83l-108.58 6.44c-2.87,-16.97 -8.96,-29.32 -18.18,-36.98 -9.31,-7.74 -22.1,-11.57 -38.37,-11.57 -13.4,0 -23.58,2.87 -30.36,8.52 -6.79,5.66 -10.18,12.62 -10.18,20.79 0,5.92 2.78,11.22 8.26,16.01 5.31,4.96 18.18,9.48 38.54,13.74 50.46,10.87 86.57,21.92 108.32,33.06 21.84,11.13 37.76,24.88 47.68,41.41 9.92,16.44 14.88,34.89 14.88,55.33 0,23.92 -6.61,46.02 -19.83,66.29 -13.31,20.19 -31.76,35.58 -55.59,46.02 -23.75,10.44 -53.68,15.66 -89.87,15.66 -63.51,0 -107.54,-12.27 -131.98,-36.72 -24.45,-24.45 -38.28,-55.51 -41.5,-93.18zm626.76 62.03l-130.85 0 -18.79 61.6 -117.89 0 140.68 -373.76 126.41 0 140.07 373.76 -120.93 0 -18.7 -61.6zm-24.45 -80.91l-40.8 -134.33 -40.98 134.33 81.78 0z"/>
   <path class="fil0" d="M890.61 490.5l126.06 0 0 32.58 -78.79 0 0 24.28 73.04 0 0 31.09 -73.04 0 0 30.02 81.13 0 0 34.5 -128.4 0 0 -152.46zm289.2 130.1c5.86,4.08 9.69,6.67 11.5,7.7 2.66,1.53 6.32,3.3 10.86,5.32l-13.02 26.37c-6.56,-3.19 -13.09,-6.95 -19.52,-11.36 -6.46,-4.4 -10.97,-7.7 -13.52,-9.9 -10.4,4.51 -23.42,6.78 -39.11,6.78 -23.17,0 -41.45,-6.04 -54.83,-18.1 -15.83,-14.27 -23.74,-34.32 -23.74,-60.15 0,-25.09 6.92,-44.58 20.76,-58.49 13.84,-13.88 33.15,-20.83 57.99,-20.83 25.3,0 44.82,6.78 58.59,20.37 13.77,13.56 20.66,33 20.66,58.27 0,22.5 -5.54,40.49 -16.61,54.02zm-36.09 -24.17c3.76,-6.71 5.64,-16.75 5.64,-30.13 0,-15.37 -2.87,-26.34 -8.59,-32.93 -5.75,-6.57 -13.63,-9.87 -23.71,-9.87 -9.41,0 -17,3.37 -22.82,10.08 -5.85,6.71 -8.77,17.21 -8.77,31.48 0,16.64 2.84,28.32 8.52,35.03 5.71,6.71 13.52,10.08 23.42,10.08 3.2,0 6.21,-0.32 9.05,-0.92 -3.97,-3.83 -10.22,-7.42 -18.77,-10.82l7.38 -16.93c4.19,0.75 7.45,1.7 9.76,2.8 2.34,1.1 6.89,4.01 13.67,8.73 1.6,1.1 3.34,2.24 5.22,3.41zm177.27 -105.93l47.06 0 0 90.82c0,8.98 -1.42,17.5 -4.22,25.48 -2.8,8.02 -7.21,15.01 -13.2,21.01 -6,6 -12.28,10.18 -18.84,12.63 -9.16,3.37 -20.16,5.08 -32.97,5.08 -7.42,0 -15.51,-0.53 -24.27,-1.56 -8.77,-1.03 -16.11,-3.09 -22,-6.17 -5.89,-3.09 -11.29,-7.45 -16.15,-13.13 -4.9,-5.68 -8.23,-11.53 -10.04,-17.57 -2.91,-9.69 -4.36,-18.28 -4.36,-25.76l0 -90.82 47.06 0 0 92.98c0,8.3 2.31,14.8 6.89,19.45 4.61,4.68 11,7.03 19.16,7.03 8.06,0 14.41,-2.31 19.02,-6.92 4.58,-4.58 6.89,-11.11 6.89,-19.55l0 -92.98zm80.06 0l47.27 0 0 152.46 -47.27 0 0 -152.46zm80.74 0l78.36 0c17.07,0 29.85,4.04 38.36,12.17 8.48,8.13 12.74,19.7 12.74,34.71 0,15.4 -4.65,27.47 -13.91,36.13 -9.26,8.7 -23.42,13.02 -42.45,13.02l-25.84 0 0 56.43 -47.27 0 0 -152.46zm47.27 65.16l11.6 0c9.16,0 15.58,-1.6 19.27,-4.75 3.69,-3.16 5.53,-7.21 5.53,-12.14 0,-4.79 -1.6,-8.84 -4.82,-12.17 -3.2,-3.34 -9.23,-5 -18.1,-5l-13.48 0 0 34.07zm106.29 -65.16l62.14 0 23.67 92.77 23.74 -92.77 61.86 0 0 152.46 -38.54 0 0 -116.23 -29.74 116.23 -34.92 0 -29.67 -116.23 0 116.23 -38.54 0 0 -152.46zm201.4 0l126.06 0 0 32.58 -78.79 0 0 24.28 73.04 0 0 31.09 -73.04 0 0 30.02 81.13 0 0 34.5 -128.4 0 0 -152.46zm154.2 0l43.97 0 57.17 84.18 0 -84.18 44.5 0 0 152.46 -44.5 0 -56.86 -83.72 0 83.72 -44.29 0 0 -152.46zm166.3 0l143.31 0 0 37.69 -48.13 0 0 114.77 -47.06 0 0 -114.77 -48.13 0 0 -37.69zm235.43 0l47.06 0 0 114.99 73.68 0 0 37.48 -120.74 0 0 -152.46zm142.03 0l47.06 0 0 114.99 73.68 0 0 37.48 -120.74 0 0 -152.46zm239.95 90.07l41.31 12.46c-2.77,11.57 -7.13,21.26 -13.13,29 -5.96,7.77 -13.35,13.63 -22.22,17.57 -8.84,3.94 -20.09,5.93 -33.75,5.93 -16.61,0 -30.13,-2.41 -40.67,-7.21 -10.5,-4.83 -19.55,-13.31 -27.19,-25.41 -7.63,-12.1 -11.46,-27.65 -11.46,-46.53 0,-25.2 6.71,-44.57 20.12,-58.13 13.45,-13.52 32.44,-20.3 57,-20.3 19.2,0 34.32,3.87 45.32,11.64 10.97,7.77 19.16,19.7 24.49,35.81l-41.52 9.19c-1.46,-4.61 -2.98,-7.99 -4.58,-10.11 -2.66,-3.59 -5.89,-6.35 -9.69,-8.27 -3.83,-1.95 -8.09,-2.91 -12.81,-2.91 -10.72,0 -18.91,4.29 -24.59,12.85 -4.29,6.35 -6.46,16.36 -6.46,29.95 0,16.89 2.56,28.43 7.7,34.71 5.14,6.24 12.35,9.37 21.65,9.37 9.01,0 15.83,-2.52 20.44,-7.6 4.61,-5.04 7.95,-12.38 10.04,-22z"/>
   <path class="fil1" d="M1989.06 692.83l24.63 0 0 47.53c0,4.7 -0.74,9.16 -2.21,13.33 -1.47,4.2 -3.77,7.86 -6.91,11 -3.14,3.14 -6.43,5.33 -9.86,6.61 -4.79,1.77 -10.55,2.66 -17.26,2.66 -3.88,0 -8.12,-0.28 -12.7,-0.82 -4.59,-0.54 -8.43,-1.62 -11.51,-3.23 -3.09,-1.62 -5.91,-3.9 -8.45,-6.87 -2.56,-2.97 -4.31,-6.04 -5.25,-9.19 -1.53,-5.07 -2.29,-9.56 -2.29,-13.48l0 -47.53 24.63 0 0 48.66c0,4.34 1.21,7.74 3.6,10.18 2.41,2.45 5.76,3.68 10.03,3.68 4.22,0 7.54,-1.21 9.95,-3.62 2.4,-2.4 3.6,-5.81 3.6,-10.23l0 -48.66zm97.65 66.64l-27.93 0 -4.01 13.15 -25.16 0 30.03 -79.79 26.99 0 29.9 79.79 -25.82 0 -3.99 -13.15zm-5.22 -17.27l-8.71 -28.68 -8.75 28.68 17.46 0zm54.28 -49.37l65.97 0 0 17.05 -41.23 0 0 12.7 38.22 0 0 16.27 -38.22 0 0 15.71 42.46 0 0 18.05 -67.2 0 0 -79.79zm160.6 42.12l32.21 0 0 17.16 -32.21 0 0 -17.16zm129.6 -42.12l24.74 0 0 79.79 -24.74 0 0 -79.79zm54.06 0l23.01 0 29.92 44.05 0 -44.05 23.29 0 0 79.79 -23.29 0 -29.75 -43.81 0 43.81 -23.18 0 0 -79.79zm104.41 0l36.65 0c7.21,0 13.06,0.99 17.5,2.93 4.44,1.97 8.12,4.78 11.03,8.43 2.9,3.68 5,7.93 6.3,12.8 1.32,4.87 1.97,10.01 1.97,15.45 0,8.52 -0.96,15.14 -2.91,19.83 -1.93,4.7 -4.62,8.64 -8.08,11.81 -3.45,3.17 -7.15,5.29 -11.11,6.35 -5.4,1.45 -10.31,2.17 -14.69,2.17l-36.65 0 0 -79.79zm24.63 18.05l0 43.57 6.05 0c5.16,0 8.84,-0.58 11.03,-1.71 2.17,-1.15 3.88,-3.14 5.12,-5.98 1.25,-2.86 1.86,-7.47 1.86,-13.86 0,-8.45 -1.38,-14.23 -4.14,-17.35 -2.77,-3.12 -7.35,-4.68 -13.76,-4.68l-6.17 0zm74.19 -18.05l24.74 0 0 79.79 -24.74 0 0 -79.79zm102.93 66.64l-27.93 0 -4.01 13.15 -25.16 0 30.03 -79.79 26.99 0 29.9 79.79 -25.82 0 -3.99 -13.15zm-5.22 -17.27l-8.71 -28.68 -8.75 28.68 17.46 0z"/>
   <polygon class="fil2" points="1865.02,699.15 890.61,699.15 890.61,765.52 1865.02,765.52 "/>
  </g>
 </g>
</svg>
